# xmcd
#
# Track frame offsets: 
#        150
#        18779
#        42296
#        62147
#        84469
#        105502
#        121549
#        148487
#        175252
#
# Disc length: 2575 seconds
#
# Revision: 0
# Processed by: cddbd v1.5.2PL0 Copyright (c) Steve Scherf et al.
# Submitted via: ExactAudioCopy v0.95b3
#
DISCID=6f0a0d09
DTITLE=Grand-Slam - Past to Present
DYEAR=1900
DGENRE=Funk
TTITLE0=Goin' Out
TTITLE1=Set my world on fire
TTITLE2=Body move
TTITLE3=Manik Botanik
TTITLE4=Drunk cruisin'
TTITLE5=Light my fire
TTITLE6=Hunk - Fop
TTITLE7=Put the funky thang on the grill
TTITLE8=Eye'll be
EXTD=
EXTT0=
EXTT1=
EXTT2=
EXTT3=
EXTT4=
EXTT5=
EXTT6=
EXTT7=
EXTT8=
PLAYORDER=
